<?xml version="1.0" encoding="utf-8" ?>
<svg baseProfile="full" height="394px" version="1.1" width="393px" xmlns="http://www.w3.org/2000/svg" xmlns:ev="http://www.w3.org/2001/xml-events" xmlns:xlink="http://www.w3.org/1999/xlink"><defs /><polygon fill="lightblue" points="100,273 99,274 98,274 96,276 95,276 93,278 92,278 89,281 88,281 86,283 85,283 83,285 82,285 79,288 78,288 76,290 75,290 72,293 71,293 69,295 68,295 65,298 64,298 62,300 61,300 58,303 57,303 54,306 53,306 51,308 50,308 49,309 52,312 52,313 59,320 59,321 67,329 68,329 75,336 76,336 80,340 81,340 84,343 85,343 88,346 89,346 91,348 92,348 94,350 95,350 96,351 97,351 99,353 100,353 101,354 102,354 103,355 104,355 106,357 107,357 108,358 109,358 110,359 111,359 112,360 113,360 114,361 115,361 116,362 117,362 118,363 120,363 121,364 122,364 123,365 124,365 125,366 127,366 128,367 130,367 131,368 132,368 133,369 135,369 136,370 138,370 139,371 142,371 143,372 145,372 146,373 149,373 150,374 153,374 154,375 158,375 159,376 163,376 164,377 170,377 171,378 179,378 180,379 182,377 182,375 183,374 183,372 184,371 184,369 185,368 185,366 186,365 186,363 187,362 187,360 188,359 188,356 189,355 189,353 190,352 190,351 191,350 191,348 192,347 192,345 193,344 193,342 194,341 194,339 195,338 195,336 196,335 196,333 197,332 197,330 198,329 198,327 199,326 199,324 200,323 200,321 201,320 201,318 202,317 202,316 201,316 200,317 188,317 187,316 177,316 176,315 172,315 171,314 167,314 166,313 163,313 162,312 159,312 158,311 156,311 155,310 153,310 152,309 151,309 150,308 148,308 147,307 146,307 145,306 144,306 143,305 142,305 141,304 140,304 139,303 138,303 137,302 136,302 135,301 134,301 133,300 132,300 130,298 129,298 127,296 126,296 124,294 123,294 120,291 119,291 114,286 113,286 102,275 102,274 101,273" stroke="black" stroke-width="0.5" /><polygon fill="lightblue" points="206,172 205,173 203,173 202,174 201,174 200,175 199,175 197,177 196,177 192,181 192,182 190,184 190,185 189,186 189,187 188,188 188,189 187,190 187,193 186,194 186,205 187,206 187,208 188,209 188,211 190,213 190,214 191,215 191,216 197,222 198,222 200,224 201,224 202,225 204,225 205,226 207,226 208,227 308,227 309,228 309,230 308,231 308,234 307,235 307,237 306,238 306,240 305,241 305,242 304,243 304,245 303,246 303,247 302,248 302,249 301,250 301,251 300,252 300,253 299,254 299,255 297,257 297,258 296,259 296,260 294,262 294,263 292,265 292,266 289,269 289,270 284,275 284,276 273,287 272,287 267,292 266,292 264,294 263,294 260,297 259,297 258,298 257,298 255,300 254,300 253,301 252,301 250,303 249,303 248,304 247,304 246,305 245,305 244,306 242,306 241,307 240,307 239,308 237,308 236,309 235,309 234,310 232,310 231,311 229,311 228,312 225,312 224,313 221,313 220,314 217,314 217,315 216,316 216,318 215,319 215,321 214,322 214,324 213,325 213,327 212,328 212,330 211,331 211,333 210,334 210,336 209,337 209,339 208,340 208,342 207,343 207,345 206,346 206,348 205,349 205,351 204,352 204,354 203,355 203,357 202,358 202,360 201,361 201,363 200,364 200,366 199,367 199,370 198,371 198,373 197,374 197,376 196,377 196,379 207,379 208,378 216,378 217,377 223,377 224,376 228,376 229,375 233,375 234,374 237,374 238,373 241,373 242,372 244,372 245,371 247,371 248,370 250,370 251,369 253,369 254,368 256,368 257,367 259,367 260,366 261,366 262,365 264,365 265,364 266,364 267,363 268,363 269,362 270,362 271,361 272,361 273,360 275,360 277,358 278,358 279,357 280,357 281,356 282,356 283,355 284,355 285,354 286,354 288,352 289,352 291,350 292,350 293,349 294,349 296,347 297,347 300,344 301,344 304,341 305,341 308,338 309,338 316,331 317,331 330,318 330,317 336,311 336,310 340,306 340,305 342,303 342,302 345,299 345,298 347,296 347,295 349,293 349,292 350,291 350,290 352,288 352,287 353,286 353,285 355,283 355,282 356,281 356,280 357,279 357,278 358,277 358,276 359,275 359,274 360,273 360,272 361,271 361,270 362,269 362,267 363,266 363,265 364,264 364,263 365,262 365,260 366,259 366,258 367,257 367,255 368,254 368,252 369,251 369,249 370,248 370,245 371,244 371,241 372,240 372,238 373,237 373,233 374,232 374,228 375,227 375,222 376,221 376,214 377,213 377,195 376,194 376,192 375,191 375,189 374,188 374,187 373,186 373,185 371,183 371,182 366,177 365,177 363,175 362,175 361,174 360,174 359,173 357,173 356,172" stroke="black" stroke-width="0.5" /><polygon fill="lightblue" points="42,86 41,87 41,88 39,90 39,91 37,93 37,94 35,96 35,97 34,98 34,99 33,100 33,101 32,102 32,103 30,105 30,106 29,107 29,108 28,109 28,110 27,111 27,112 26,113 26,114 25,115 25,117 24,118 24,119 23,120 23,121 22,122 22,124 21,125 21,126 20,127 20,129 19,130 19,132 18,133 18,135 17,136 17,138 16,139 16,141 15,142 15,145 14,146 14,149 13,150 13,153 12,154 12,158 11,159 11,164 10,165 10,172 9,173 9,186 8,187 8,197 9,198 9,211 10,212 10,219 11,220 11,225 12,226 12,230 13,231 13,235 14,236 14,239 15,240 15,243 16,244 16,246 17,247 17,249 18,250 18,252 19,253 19,255 20,256 20,258 21,259 21,260 22,261 22,263 23,264 23,265 24,266 24,267 25,268 25,270 26,271 26,272 27,273 27,274 28,275 28,276 29,277 29,278 30,279 30,280 31,281 31,282 33,284 33,285 34,286 34,287 35,288 35,289 37,291 37,292 39,294 39,295 41,297 41,298 42,298 44,296 45,296 48,293 49,293 52,290 53,290 55,288 56,288 59,285 60,285 62,283 63,283 66,280 67,280 69,278 70,278 73,275 74,275 76,273 77,273 79,271 80,271 83,268 84,268 86,266 87,266 90,263 91,263 92,262 90,260 90,259 89,258 89,257 87,255 87,254 86,253 86,252 85,251 85,250 84,249 84,248 83,247 83,246 82,245 82,244 81,243 81,242 80,241 80,239 79,238 79,237 78,236 78,234 77,233 77,231 76,230 76,227 75,226 75,224 74,223 74,219 73,218 73,214 72,213 72,206 71,205 71,181 72,180 72,173 73,172 73,168 74,167 74,164 75,163 75,160 76,159 76,156 77,155 77,153 78,152 78,150 79,149 79,148 80,147 80,145 81,144 81,143 82,142 82,141 83,140 83,139 84,138 84,137 85,136 85,135 86,134 86,133 87,132 87,131 89,129 89,128 90,127 90,126 92,124 92,123 91,122 90,122 87,119 86,119 84,117 83,117 80,114 79,114 76,111 75,111 72,108 71,108 68,105 67,105 65,103 64,103 61,100 60,100 57,97 56,97 53,94 52,94 49,91 48,91 45,88 44,88" stroke="black" stroke-width="0.5" /><polygon fill="lightblue" points="196,6 196,69 208,69 209,70 214,70 215,71 219,71 220,72 223,72 224,73 227,73 228,74 230,74 231,75 233,75 234,76 236,76 237,77 238,77 239,78 241,78 242,79 243,79 244,80 245,80 246,81 247,81 248,82 249,82 250,83 251,83 252,84 253,84 255,86 256,86 257,87 258,87 260,89 261,89 263,91 264,91 267,94 268,94 272,98 273,98 286,111 286,112 290,116 290,117 293,120 295,120 297,118 298,118 300,116 301,116 302,115 303,115 305,113 306,113 308,111 309,111 311,109 312,109 313,108 314,108 316,106 317,106 319,104 320,104 321,103 322,103 324,101 325,101 326,100 327,100 329,98 330,98 331,97 332,97 334,95 335,95 337,93 338,93 339,92 340,92 342,90 343,90 344,89 345,89 346,88 346,87 344,85 344,84 342,82 342,81 339,78 339,77 336,74 336,73 331,68 331,67 315,51 314,51 309,46 308,46 305,43 304,43 301,40 300,40 298,38 297,38 295,36 294,36 292,34 291,34 289,32 288,32 287,31 286,31 285,30 284,30 282,28 281,28 280,27 279,27 278,26 277,26 276,25 275,25 274,24 273,24 272,23 271,23 270,22 269,22 268,21 266,21 265,20 264,20 263,19 261,19 260,18 259,18 258,17 256,17 255,16 253,16 252,15 250,15 249,14 247,14 246,13 243,13 242,12 240,12 239,11 236,11 235,10 231,10 230,9 226,9 225,8 219,8 218,7 210,7 209,6" stroke="black" stroke-width="0.5" /><polygon fill="lightblue" points="177,6 176,7 168,7 167,8 162,8 161,9 157,9 156,10 153,10 152,11 149,11 148,12 145,12 144,13 142,13 141,14 138,14 137,15 135,15 134,16 132,16 131,17 130,17 129,18 127,18 126,19 125,19 124,20 122,20 121,21 120,21 119,22 118,22 117,23 116,23 115,24 114,24 113,25 112,25 111,26 110,26 109,27 108,27 107,28 106,28 105,29 104,29 102,31 101,31 100,32 99,32 98,33 97,33 95,35 94,35 92,37 91,37 89,39 88,39 85,42 84,42 81,45 80,45 75,50 74,50 54,70 54,71 50,75 53,78 54,78 57,81 58,81 61,84 62,84 65,87 66,87 69,90 70,90 73,93 74,93 76,95 77,95 80,98 81,98 84,101 85,101 88,104 89,104 91,106 92,106 95,109 96,109 98,111 99,111 100,112 101,112 105,108 105,107 112,100 113,100 119,94 120,94 123,91 124,91 126,89 127,89 129,87 130,87 132,85 133,85 134,84 135,84 136,83 137,83 138,82 139,82 140,81 141,81 142,80 143,80 144,79 145,79 146,78 147,78 148,77 150,77 151,76 153,76 154,75 155,75 156,74 159,74 160,73 162,73 163,72 167,72 168,71 172,71 173,70 178,70 179,69 181,69 181,6" stroke="black" stroke-width="0.5" /></svg>